<?xml version="1.0" encoding="UTF-8" standalone="no"?>
<!-- Created with Inkscape (http://www.inkscape.org/) -->

<svg
   xmlns:dc="http://purl.org/dc/elements/1.1/"
   xmlns:cc="http://creativecommons.org/ns#"
   xmlns:rdf="http://www.w3.org/1999/02/22-rdf-syntax-ns#"
   xmlns:svg="http://www.w3.org/2000/svg"
   xmlns="http://www.w3.org/2000/svg"
   xmlns:sodipodi="http://sodipodi.sourceforge.net/DTD/sodipodi-0.dtd"
   xmlns:inkscape="http://www.inkscape.org/namespaces/inkscape"
   width="459.90646"
   height="398.37195"
   id="svg2"
   version="1.1"
   inkscape:version="0.48.3.1 r9886">
  <defs
     id="defs4" />
  <sodipodi:namedview
     id="base"
     pagecolor="#ffffff"
     bordercolor="#666666"
     borderopacity="1.0"
     inkscape:pageopacity="0.0"
     inkscape:pageshadow="2"
     inkscape:zoom="0.49497475"
     inkscape:cx="1138.6098"
     inkscape:cy="613.66636"
     inkscape:document-units="px"
     inkscape:current-layer="layer1"
     showgrid="false"
     inkscape:window-width="1920"
     inkscape:window-height="1150"
     inkscape:window-x="0"
     inkscape:window-y="0"
     inkscape:window-maximized="1"
     fit-margin-top="0"
     fit-margin-left="0"
     fit-margin-right="0"
     fit-margin-bottom="0"
     showborder="true"
     borderlayer="false" />
  <metadata
     id="metadata7">
    <rdf:RDF>
      <cc:Work
         rdf:about="">
        <dc:format>image/svg+xml</dc:format>
        <dc:type
           rdf:resource="http://purl.org/dc/dcmitype/StillImage" />
        <dc:title></dc:title>
      </cc:Work>
    </rdf:RDF>
  </metadata>
  <g
     inkscape:label="Layer 1"
     inkscape:groupmode="layer"
     id="layer1"
     transform="translate(-137.15368,-61.415488)">
    <path
       style="fill:none;stroke:#000000;stroke-width:2;stroke-linecap:butt;stroke-linejoin:miter;stroke-miterlimit:4;stroke-opacity:1;stroke-dasharray:2, 2;stroke-dashoffset:0"
       d="m 403.08597,317.8423 c -31.82807,12.88784 -35.46016,4.14724 -48.26102,3.92408 -9.77634,4.73229 -1.37979,0.79059 -11.78464,5.28468 -5.66158,5.30694 -1.55313,13.1717 -20.72599,22.00282"
       id="path4073-3-8-8-7-3"
       inkscape:connector-curvature="0"
       sodipodi:nodetypes="cccc" />
    <path
       style="fill:none;stroke:#000000;stroke-width:2;stroke-linecap:butt;stroke-linejoin:miter;stroke-miterlimit:4;stroke-opacity:1;stroke-dasharray:none"
       d="m 545.10334,276.84549 c -18.06919,4.44408 -31.74558,18.53286 -50.49776,20.9649 -25.34641,8.11523 -51.42763,14.1637 -77.54558,19.34892 -4.12391,0.59717 -8.38436,1.32656 -12.50643,0.29214"
       id="path4013"
       inkscape:connector-curvature="0"
       sodipodi:nodetypes="cccc" />
    <path
       style="fill:none;stroke:#000000;stroke-width:2;stroke-linecap:butt;stroke-linejoin:miter;stroke-miterlimit:4;stroke-opacity:1;stroke-dasharray:none"
       d="m 207.85421,196.22727 c -16.9461,2.66118 -31.13617,13.24665 -46.88403,19.29618 -7.91638,4.34273 -15.31617,9.53729 -22.8165,14.54393"
       id="path4169"
       inkscape:connector-curvature="0" />
    <path
       style="fill:none;stroke:#000000;stroke-width:2;stroke-linecap:butt;stroke-linejoin:miter;stroke-miterlimit:4;stroke-opacity:1;stroke-dasharray:2, 2;stroke-dashoffset:0"
       d="m 272.74119,136.15382 c -7.57466,1.41247 -15.63561,2.52405 -22.30033,6.53215 -3.63675,5.94756 -11.43837,9.24633 -13.38294,14.96395 -6.90349,6.02753 -8.05653,15.76112 -14.19213,22.34602 -3.50778,5.97321 -6.85902,12.72304 -13.77283,15.41136 l -1.00575,0.45902 -1.00594,-0.11346"
       id="path4073"
       inkscape:connector-curvature="0" />
    <path
       style="fill:none;stroke:#000000;stroke-width:2;stroke-linecap:butt;stroke-linejoin:miter;stroke-miterlimit:4;stroke-opacity:1;stroke-dasharray:none"
       d="m 290.67139,310.1526 c -1.18236,2.45979 -4.40575,1.51547 -6.42423,2.61032 -1.93397,1.59593 -3.96763,3.05547 -6.07403,4.4283 -3.33231,2.38008 -6.92338,4.46395 -10.89886,5.54703 -4.97526,1.87477 -9.4651,4.83507 -14.4836,6.60725"
       id="path4173"
       inkscape:connector-curvature="0" />
    <path
       style="fill:none;stroke:#000000;stroke-width:2;stroke-linecap:butt;stroke-linejoin:miter;stroke-miterlimit:4;stroke-opacity:1;stroke-dasharray:none"
       d="m 307.85668,330.34296 c -8.10114,3.91504 -16.31554,7.70368 -24.50941,11.33031 -6.12675,2.05518 -11.98316,5.05985 -16.40177,9.88289"
       id="path4175"
       inkscape:connector-curvature="0" />
    <path
       style="fill:none;stroke:#000000;stroke-width:2;stroke-linecap:butt;stroke-linejoin:miter;stroke-miterlimit:4;stroke-opacity:1;stroke-dasharray:none"
       d="m 322.80053,349.21306 c -6.89934,0.84793 -12.18124,6.47487 -19.16578,6.9993 -5.07748,2.32453 -10.7081,3.2628 -15.64394,5.75754 -3.39182,0.9267 -6.26374,2.59713 -9.13192,4.41576"
       id="path4177"
       inkscape:connector-curvature="0" />
    <path
       style="fill:none;stroke:#000000;stroke-width:2;stroke-linecap:butt;stroke-linejoin:miter;stroke-miterlimit:4;stroke-opacity:1;stroke-dasharray:none"
       d="m 337.26469,366.53174 c -4.27971,1.12675 -7.98822,3.53314 -11.70493,5.81439 -4.90489,2.56894 -8.86897,6.56524 -13.61914,9.4066 -1.3335,0.93845 -2.16362,1.37944 -1.7667,1.30197 -3.66999,2.90914 -7.83152,5.26223 -11.2287,8.45476 -2.03876,1.31668 -4.45977,3.55164 -5.6222,4.82178"
       id="path4179"
       inkscape:connector-curvature="0" />
    <path
       style="fill:none;stroke:#000000;stroke-width:2;stroke-linecap:butt;stroke-linejoin:miter;stroke-miterlimit:4;stroke-opacity:1;stroke-dasharray:none"
       d="m 240.66884,247.39687 c -3.99414,4.28316 -8.35987,8.2712 -10.95906,13.60932 -3.81358,6.34821 -7.81682,12.5556 -12.32846,18.43603 -2.20809,3.37308 -4.6563,6.89734 -5.50187,10.88614"
       id="path4171"
       inkscape:connector-curvature="0" />
    <path
       style="fill:none;stroke:#ff0000;stroke-width:1px;stroke-linecap:butt;stroke-linejoin:miter;stroke-opacity:1"
       d="m 335,83.790753 c -49.87034,-4.003034 -100.76371,26.396227 -121.47084,71.826587 -11.89611,25.31645 -7.35381,57.09216 11.97781,77.51212 9.81894,10.38972 21.69255,18.39016 29.05776,30.97212 50.28714,65.91892 106.10565,127.47322 154.72145,194.68912"
       id="path3830"
       inkscape:connector-curvature="0" />
    <path
       style="fill:none;stroke:#000000;stroke-width:2;stroke-linecap:butt;stroke-linejoin:miter;stroke-miterlimit:4;stroke-opacity:1;stroke-dasharray:none"
       d="m 382.85714,333.79075 c 17.19095,49.39395 71.32381,72.95541 120.51019,61.88067 39.3464,-2.41371 97.25518,-14.9797 92.40706,-65.5982"
       id="path4011"
       inkscape:connector-curvature="0"
       sodipodi:nodetypes="ccc" />
    <path
       style="fill:none;stroke:#ff0000;stroke-width:1.00934422px;stroke-linecap:butt;stroke-linejoin:miter;stroke-opacity:1"
       d="m 334.36049,82.110662 c 20.54433,61.249058 68.31047,106.185908 107.10453,155.452628 13.532,17.2054 26.18093,35.24785 36.28661,54.78455 18.19017,17.92676 34.60749,44.49542 25.37081,71.11138 -11.74552,31.46029 -40.53229,50.85601 -65.04365,71.42173 -9.71095,7.85556 -19.41619,15.74825 -28.46193,24.40181"
       id="path3836"
       inkscape:connector-curvature="0" />
    <path
       style="fill:none;stroke:#000000;stroke-width:2;stroke-linecap:butt;stroke-linejoin:miter;stroke-miterlimit:4;stroke-opacity:1;stroke-dasharray:none"
       d="m 274.82668,135.59813 c 58.71828,-1.62683 123.56065,18.26007 176.10888,-17.80596 45.3127,-22.403507 5.19594,-81.943175 -30.31959,-41.816157 -39.56089,45.197847 47.57438,80.534117 69.30107,63.235227 9.40974,-14.03409 45.25828,-27.6195 43.85541,-29.84607"
       id="path4003"
       inkscape:connector-curvature="0"
       sodipodi:nodetypes="ccccc" />
    <path
       style="fill:none;stroke:#ff0000;stroke-width:2;stroke-linecap:butt;stroke-linejoin:miter;stroke-miterlimit:4;stroke-opacity:1;stroke-dasharray:none"
       d="m 258.59905,128.0726 c 11.6864,3.02188 20.73985,11.31977 31.31473,16.66752"
       id="path3867"
       inkscape:connector-curvature="0" />
    <path
       style="fill:none;stroke:#000000;stroke-width:2;stroke-linecap:butt;stroke-linejoin:miter;stroke-miterlimit:4;stroke-opacity:1;stroke-dasharray:none"
       d="m 295,205.21932 c 18.77466,-28.97806 51.36258,-44.81265 84.72001,-49.8682 43.85311,-7.30982 5.69601,11.20682 49.57013,12.18001 29.56351,-0.3701 63.19952,10.43703 91.56757,0.7249 13.84031,-3.56515 15.04302,-2.92306 28.428,-8.03666"
       id="path4005"
       inkscape:connector-curvature="0"
       sodipodi:nodetypes="ccccc" />
    <path
       style="fill:none;stroke:#ff0000;stroke-width:2;stroke-linecap:butt;stroke-linejoin:miter;stroke-miterlimit:4;stroke-opacity:1;stroke-dasharray:none"
       d="m 278.80211,197.01551 c 11.6864,3.02188 20.73985,11.31977 31.31473,16.66752"
       id="path3867-9"
       inkscape:connector-curvature="0" />
    <path
       style="fill:none;stroke:#ff0000;stroke-width:2;stroke-linecap:butt;stroke-linejoin:miter;stroke-miterlimit:4;stroke-opacity:1;stroke-dasharray:none"
       d="m 268.57143,151.6479 c -0.87378,-1.62727 0.36144,-3.38561 0.18068,-0.65543 0.52885,-2.6215 1.23727,-6.13142 2.45318,-8.91788 1.68496,-3.19512 3.41435,-6.38767 5.41492,-9.40601 1.19179,-2.93428 3.58731,-5.42589 4.80834,-8.16354"
       id="path3925"
       inkscape:connector-curvature="0" />
    <path
       style="fill:none;stroke:#ff0000;stroke-width:2;stroke-linecap:butt;stroke-linejoin:miter;stroke-miterlimit:4;stroke-opacity:1;stroke-dasharray:none"
       d="m 294.28571,218.79075 c 2.32118,-7.62488 -1.696,-15.24597 -1.4215,-22.94475 -0.0833,-1.15896 -0.10707,-2.325 -0.007,-3.48382"
       id="path3927"
       inkscape:connector-curvature="0" />
    <path
       style="fill:none;stroke:#000000;stroke-width:2;stroke-linecap:butt;stroke-linejoin:miter;stroke-miterlimit:4;stroke-opacity:1;stroke-dasharray:none"
       d="m 367.7346,262.86726 c 144.62025,-51.92542 78.44622,21.33391 116.64049,1.00141 17.10895,-15.1125 -35.68843,-35.61361 -9.84704,-43.10372 C 511.78541,205.913 520.99884,217.29984 565,205.93368"
       id="path4007"
       inkscape:connector-curvature="0"
       sodipodi:nodetypes="cccc" />
    <path
       style="fill:none;stroke:#000000;stroke-width:2;stroke-linecap:butt;stroke-linejoin:miter;stroke-miterlimit:4;stroke-opacity:1;stroke-dasharray:none"
       d="m 362.14286,303.07647 c 46.35769,-21.61286 101.30097,-17.34661 145.41341,-44.69616 10.88251,-6.828 20.52228,-15.61903 28.32159,-25.82802"
       id="path4009"
       inkscape:connector-curvature="0"
       sodipodi:nodetypes="ccc" />
    <path
       style="fill:none;stroke:#000000;stroke-width:2;stroke-linecap:butt;stroke-linejoin:miter;stroke-miterlimit:4;stroke-opacity:1;stroke-dasharray:2, 2;stroke-dashoffset:0"
       d="m 294.61002,205.76958 c -9.00323,11.50176 -13.04632,20.82762 -19.71104,24.83572 -3.63675,5.94756 -15.18837,-10.03938 -17.13294,-4.32176 -4.47822,5.1232 -6.20644,7.82666 -17.47665,21.22794"
       id="path4073-3"
       inkscape:connector-curvature="0"
       sodipodi:nodetypes="cccc" />
    <path
       style="fill:none;stroke:#000000;stroke-width:2;stroke-linecap:butt;stroke-linejoin:miter;stroke-miterlimit:4;stroke-opacity:1;stroke-dasharray:2, 2;stroke-dashoffset:0"
       d="m 365.76595,263.42132 c -31.82807,12.88784 -17.83307,15.23526 -26.25893,19.3871 -4.59776,6.16086 -9.73758,-2.27441 -20.14243,2.21968 -5.66158,5.30694 -13.91791,10.78592 -28.16625,24.6678"
       id="path4073-3-8"
       inkscape:connector-curvature="0"
       sodipodi:nodetypes="cccc" />
    <path
       style="fill:none;stroke:#ff0000;stroke-width:2;stroke-linecap:butt;stroke-linejoin:miter;stroke-miterlimit:4;stroke-opacity:1;stroke-dasharray:none"
       d="m 363.57143,276.64789 c -1.0684,-7.20385 4.20587,-13.19477 6.73203,-19.51851 1.26031,-2.70803 2.39447,-5.48038 3.26797,-8.33886"
       id="path3929"
       inkscape:connector-curvature="0" />
    <path
       style="fill:none;stroke:#ff0000;stroke-width:2;stroke-linecap:butt;stroke-linejoin:miter;stroke-miterlimit:4;stroke-opacity:1;stroke-dasharray:none"
       d="m 346.9874,253.58405 c 11.6864,3.02188 20.73985,11.31977 31.31473,16.66752"
       id="path3867-0"
       inkscape:connector-curvature="0" />
    <path
       style="fill:none;stroke:#000000;stroke-width:2;stroke-linecap:butt;stroke-linejoin:miter;stroke-miterlimit:4;stroke-opacity:1;stroke-dasharray:2, 2;stroke-dashoffset:0"
       d="m 360.72202,303.49342 c -31.82807,12.88784 -30.33371,-12.79647 -38.75957,-8.64463 -4.59776,6.16086 27.63807,23.73701 17.23322,28.2311 -5.66158,5.30694 -11.64507,-1.84098 -30.8179,6.99014"
       id="path4073-3-8-8"
       inkscape:connector-curvature="0"
       sodipodi:nodetypes="cccc" />
    <path
       style="fill:none;stroke:#ff0000;stroke-width:2;stroke-linecap:butt;stroke-linejoin:miter;stroke-miterlimit:4;stroke-opacity:1;stroke-dasharray:none"
       d="m 354.28571,310.93361 c 2.91184,-3.73114 6.15042,-7.21498 8.57415,-11.30472 0.96138,-1.62737 2.72693,-3.16744 2.85478,-5.12382"
       id="path3931"
       inkscape:connector-curvature="0" />
    <path
       style="fill:none;stroke:#ff0000;stroke-width:2;stroke-linecap:butt;stroke-linejoin:miter;stroke-miterlimit:4;stroke-opacity:1;stroke-dasharray:none"
       d="m 341.43156,293.48508 c 11.6864,3.02188 20.73985,11.31977 31.31473,16.66752"
       id="path3867-7"
       inkscape:connector-curvature="0" />
    <path
       style="fill:none;stroke:#000000;stroke-width:2;stroke-linecap:butt;stroke-linejoin:miter;stroke-miterlimit:4;stroke-opacity:1;stroke-dasharray:2, 2;stroke-dashoffset:0"
       d="m 382.74982,334.85436 c -8.27642,-11.81588 -16.09898,1.96947 -21.07992,4.05076 -5.66158,5.30694 -4.32365,17.98044 -23.49648,26.81156"
       id="path4073-3-8-8-7"
       inkscape:connector-curvature="0"
       sodipodi:nodetypes="ccc" />
    <path
       style="fill:none;stroke:#ff0000;stroke-width:2;stroke-linecap:butt;stroke-linejoin:miter;stroke-miterlimit:4;stroke-opacity:1;stroke-dasharray:none"
       d="m 378.57143,343.07647 c 1.01578,-6.82036 5.47959,-12.36242 9.28555,-17.85715"
       id="path3935"
       inkscape:connector-curvature="0" />
    <path
       style="fill:none;stroke:#ff0000;stroke-width:2;stroke-linecap:butt;stroke-linejoin:miter;stroke-miterlimit:4;stroke-opacity:1;stroke-dasharray:none"
       d="m 363.65491,324.29473 c 11.6864,3.02188 20.73985,11.31977 31.31473,16.66752"
       id="path3867-14"
       inkscape:connector-curvature="0" />
    <path
       style="fill:none;stroke:#ff0000;stroke-width:2;stroke-linecap:butt;stroke-linejoin:miter;stroke-miterlimit:4;stroke-opacity:1;stroke-dasharray:none"
       d="m 382.84782,307.62721 c 11.6864,3.02188 20.73985,11.31977 31.31473,16.66752"
       id="path3867-1"
       inkscape:connector-curvature="0" />
    <path
       style="fill:none;stroke:#ff0000;stroke-width:2;stroke-linecap:butt;stroke-linejoin:miter;stroke-miterlimit:4;stroke-opacity:1;stroke-dasharray:none"
       d="m 396.42857,325.21932 c 7.0804,-3.58782 9.81369,-11.62928 14.9999,-17.14311"
       id="path3933"
       inkscape:connector-curvature="0" />
  </g>
</svg>
