<?xml version="1.0" encoding="UTF-8" standalone="no"?>
<!-- Created with Inkscape (http://www.inkscape.org/) -->

<svg
   xmlns:ns0="http://www.iki.fi/pav/software/textext/"
   xmlns:dc="http://purl.org/dc/elements/1.1/"
   xmlns:cc="http://creativecommons.org/ns#"
   xmlns:rdf="http://www.w3.org/1999/02/22-rdf-syntax-ns#"
   xmlns:svg="http://www.w3.org/2000/svg"
   xmlns="http://www.w3.org/2000/svg"
   xmlns:xlink="http://www.w3.org/1999/xlink"
   xmlns:sodipodi="http://sodipodi.sourceforge.net/DTD/sodipodi-0.dtd"
   xmlns:inkscape="http://www.inkscape.org/namespaces/inkscape"
   width="226.66365"
   height="234.23215"
   id="svg2"
   version="1.1"
   inkscape:version="0.47 r22583"
   sodipodi:docname="Pendel.svg">
  <sodipodi:namedview
     id="base"
     pagecolor="#ffffff"
     bordercolor="#666666"
     borderopacity="1.0"
     inkscape:pageopacity="0.0"
     inkscape:pageshadow="2"
     inkscape:zoom="1.4"
     inkscape:cx="382.21473"
     inkscape:cy="49.826359"
     inkscape:document-units="px"
     inkscape:current-layer="layer1"
     showgrid="false"
     inkscape:window-width="1680"
     inkscape:window-height="976"
     inkscape:window-x="0"
     inkscape:window-y="25"
     inkscape:window-maximized="1"
     fit-margin-top="0"
     fit-margin-left="0"
     fit-margin-right="0"
     fit-margin-bottom="0">
    <inkscape:grid
       type="xygrid"
       id="grid2987"
       empspacing="5"
       visible="true"
       enabled="true"
       snapvisiblegridlinesonly="true"
       originx="-92.133903px"
       originy="-695.44253px" />
  </sodipodi:namedview>
  <defs
     id="defs4">
    <inkscape:perspective
       sodipodi:type="inkscape:persp3d"
       inkscape:vp_x="0 : 117.11607 : 1"
       inkscape:vp_y="0 : 1000 : 0"
       inkscape:vp_z="226.66365 : 117.11607 : 1"
       inkscape:persp3d-origin="113.33183 : 78.077382 : 1"
       id="perspective40" />
    <marker
       inkscape:stockid="Arrow1Mend"
       orient="auto"
       refY="0"
       refX="0"
       id="Arrow1Mend"
       style="overflow:visible">
      <path
         id="path4055"
         d="M 0,0 5,-5 -12.5,0 5,5 0,0 z"
         style="fill-rule:evenodd;stroke:#000000;stroke-width:1pt"
         transform="matrix(-0.4,0,0,-0.4,-4,0)"
         inkscape:connector-curvature="0" />
    </marker>
    <marker
       inkscape:stockid="Arrow2Mstart"
       orient="auto"
       refY="0"
       refX="0"
       id="Arrow2Mstart"
       style="overflow:visible">
      <path
         id="path4070"
         style="fill-rule:evenodd;stroke-width:0.625;stroke-linejoin:round"
         d="M 8.7185878,4.0337352 -2.2072895,0.01601326 8.7185884,-4.0017078 c -1.7454984,2.3720609 -1.7354408,5.6174519 -6e-7,8.035443 z"
         transform="scale(0.6,0.6)"
         inkscape:connector-curvature="0" />
    </marker>
    <marker
       inkscape:stockid="Arrow1Lstart"
       orient="auto"
       refY="0"
       refX="0"
       id="Arrow1Lstart"
       style="overflow:visible">
      <path
         id="path4046"
         d="M 0,0 5,-5 -12.5,0 5,5 0,0 z"
         style="fill-rule:evenodd;stroke:#000000;stroke-width:1pt"
         transform="matrix(0.8,0,0,0.8,10,0)"
         inkscape:connector-curvature="0" />
    </marker>
    <inkscape:perspective
       id="perspective2854"
       inkscape:persp3d-origin="0.5 : 0.33333333 : 1"
       inkscape:vp_z="1 : 0.5 : 1"
       inkscape:vp_y="0 : 1000 : 0"
       inkscape:vp_x="0 : 0.5 : 1"
       sodipodi:type="inkscape:persp3d" />
    <marker
       inkscape:stockid="Arrow1Mend"
       orient="auto"
       refY="0"
       refX="0"
       id="Arrow1Mend-0"
       style="overflow:visible">
      <path
         id="path4055-4"
         d="M 0,0 5,-5 -12.5,0 5,5 0,0 z"
         style="fill-rule:evenodd;stroke:#000000;stroke-width:1pt"
         transform="matrix(-0.4,0,0,-0.4,-4,0)"
         inkscape:connector-curvature="0" />
    </marker>
    <inkscape:perspective
       id="perspective2854-1"
       inkscape:persp3d-origin="0.5 : 0.33333333 : 1"
       inkscape:vp_z="1 : 0.5 : 1"
       inkscape:vp_y="0 : 1000 : 0"
       inkscape:vp_x="0 : 0.5 : 1"
       sodipodi:type="inkscape:persp3d" />
    <marker
       inkscape:stockid="Arrow1Mend"
       orient="auto"
       refY="0"
       refX="0"
       id="Arrow1Mend-9"
       style="overflow:visible">
      <path
         id="path4055-6"
         d="M 0,0 5,-5 -12.5,0 5,5 0,0 z"
         style="fill-rule:evenodd;stroke:#000000;stroke-width:1pt"
         transform="matrix(-0.4,0,0,-0.4,-4,0)"
         inkscape:connector-curvature="0" />
    </marker>
    <inkscape:perspective
       sodipodi:type="inkscape:persp3d"
       inkscape:vp_x="0 : 0.5 : 1"
       inkscape:vp_y="0 : 1000 : 0"
       inkscape:vp_z="1 : 0.5 : 1"
       inkscape:persp3d-origin="0.5 : 0.33333333 : 1"
       id="perspective3006" />
    <inkscape:perspective
       id="perspective4593"
       inkscape:persp3d-origin="0.5 : 0.33333333 : 1"
       inkscape:vp_z="1 : 0.5 : 1"
       inkscape:vp_y="0 : 1000 : 0"
       inkscape:vp_x="0 : 0.5 : 1"
       sodipodi:type="inkscape:persp3d" />
    <marker
       inkscape:stockid="Arrow1Mend"
       orient="auto"
       refY="0"
       refX="0"
       id="Arrow1Mend-9-0"
       style="overflow:visible">
      <path
         id="path4055-6-4"
         d="M 0,0 5,-5 -12.5,0 5,5 0,0 z"
         style="fill-rule:evenodd;stroke:#000000;stroke-width:1pt"
         transform="matrix(-0.4,0,0,-0.4,-4,0)"
         inkscape:connector-curvature="0" />
    </marker>
    <inkscape:perspective
       sodipodi:type="inkscape:persp3d"
       inkscape:vp_x="0 : 0.5 : 1"
       inkscape:vp_y="0 : 1000 : 0"
       inkscape:vp_z="1 : 0.5 : 1"
       inkscape:persp3d-origin="0.5 : 0.33333333 : 1"
       id="perspective5083" />
    <marker
       inkscape:stockid="Arrow1Mend"
       orient="auto"
       refY="0"
       refX="0"
       id="Arrow1Mend-9-0-8"
       style="overflow:visible">
      <path
         id="path4055-6-4-9"
         d="M 0,0 5,-5 -12.5,0 5,5 0,0 z"
         style="fill-rule:evenodd;stroke:#000000;stroke-width:1pt"
         transform="matrix(-0.4,0,0,-0.4,-4,0)"
         inkscape:connector-curvature="0" />
    </marker>
  </defs>
  <metadata
     id="metadata7">
    <rdf:RDF>
      <cc:Work
         rdf:about="">
        <dc:format>image/svg+xml</dc:format>
        <dc:type
           rdf:resource="http://purl.org/dc/dcmitype/StillImage" />
        <dc:title></dc:title>
      </cc:Work>
    </rdf:RDF>
  </metadata>
  <g
     inkscape:label="Layer 1"
     inkscape:groupmode="layer"
     id="layer1"
     transform="translate(-92.133903,-122.6875)">
    <path
       style="fill:none;stroke:#000000;stroke-width:1.00319076px;stroke-linecap:butt;stroke-linejoin:miter;stroke-opacity:1"
       d="M 94.622788,257.99193 315.37721,123.1214"
       id="path2985"
       inkscape:connector-curvature="0"
       sodipodi:nodetypes="cc" />
    <path
       style="fill:none;stroke:#000000;stroke-width:1px;stroke-linecap:butt;stroke-linejoin:miter;stroke-opacity:1"
       d="m 95,257.36218 0,95"
       id="path3775"
       inkscape:connector-curvature="0" />
    <path
       style="fill:none;stroke:#000000;stroke-width:1px;stroke-linecap:butt;stroke-linejoin:miter;stroke-opacity:1"
       d="m 315,123.11979 0,95"
       id="path3775-0"
       inkscape:connector-curvature="0" />
    <path
       style="fill:none;stroke:#000000;stroke-width:1px;stroke-linecap:butt;stroke-linejoin:miter;stroke-opacity:1"
       d="m 120,242.36218 55,75"
       id="path3775-5"
       inkscape:connector-curvature="0"
       sodipodi:nodetypes="cc" />
    <path
       style="fill:none;stroke:#000000;stroke-width:1px;stroke-linecap:butt;stroke-linejoin:miter;stroke-opacity:1"
       d="m 170,212.36218 55,75"
       id="path3775-5-9"
       inkscape:connector-curvature="0"
       sodipodi:nodetypes="cc" />
    <path
       style="fill:none;stroke:#000000;stroke-width:1px;stroke-linecap:butt;stroke-linejoin:miter;stroke-opacity:1"
       d="m 220,181.36218 50,81"
       id="path3775-5-1"
       inkscape:connector-curvature="0"
       sodipodi:nodetypes="cc" />
    <path
       style="fill:none;stroke:#000000;stroke-width:1px;stroke-linecap:butt;stroke-linejoin:miter;stroke-opacity:1"
       d="m 265,154.36218 50,83"
       id="path3775-5-6"
       inkscape:connector-curvature="0"
       sodipodi:nodetypes="cc" />
    <path
       style="fill:none;stroke:#000000;stroke-width:1;stroke-linecap:butt;stroke-linejoin:miter;stroke-miterlimit:4;stroke-opacity:1;stroke-dasharray:1, 3;stroke-dashoffset:0"
       d="m 120,242.36218 0,75"
       id="path3845"
       inkscape:connector-curvature="0" />
    <path
       style="fill:none;stroke:#000000;stroke-width:1;stroke-linecap:butt;stroke-linejoin:miter;stroke-miterlimit:4;stroke-opacity:1;stroke-dasharray:1, 3;stroke-dashoffset:0"
       d="m 170,212.36218 0,75"
       id="path3845-7"
       inkscape:connector-curvature="0" />
    <path
       style="fill:none;stroke:#000000;stroke-width:1;stroke-linecap:butt;stroke-linejoin:miter;stroke-miterlimit:4;stroke-opacity:1;stroke-dasharray:1, 3;stroke-dashoffset:0"
       d="m 220,182.36218 0,75"
       id="path3845-0"
       inkscape:connector-curvature="0" />
    <path
       style="fill:none;stroke:#000000;stroke-width:1;stroke-linecap:butt;stroke-linejoin:miter;stroke-miterlimit:4;stroke-opacity:1;stroke-dasharray:1, 3;stroke-dashoffset:0"
       d="m 265,157.36218 0,75"
       id="path3845-3"
       inkscape:connector-curvature="0" />
    <path
       sodipodi:type="arc"
       style="fill:#000000;fill-opacity:1;stroke:#000000;stroke-width:0;stroke-linecap:butt;stroke-miterlimit:4;stroke-opacity:0.67372885;stroke-dasharray:none;stroke-dashoffset:0"
       id="path3886-4"
       sodipodi:cx="19.697975"
       sodipodi:cy="66.20076"
       sodipodi:rx="3.0304577"
       sodipodi:ry="3.2829957"
       d="m 22.728433,66.20076 c 0,1.813148 -1.356782,3.282996 -3.030458,3.282996 -1.673675,0 -3.030458,-1.469848 -3.030458,-3.282996 0,-1.813149 1.356783,-3.282996 3.030458,-3.282996 1.673351,0 3.029999,1.469298 3.030458,3.282095"
       sodipodi:start="0"
       sodipodi:end="6.2829109"
       sodipodi:open="true"
       transform="translate(155.68976,251.90679)" />
    <path
       sodipodi:type="arc"
       style="fill:#000000;fill-opacity:1;stroke:#000000;stroke-width:0;stroke-linecap:butt;stroke-miterlimit:4;stroke-opacity:0.67372885;stroke-dasharray:none;stroke-dashoffset:0"
       id="path3886-4-0"
       sodipodi:cx="19.697975"
       sodipodi:cy="66.20076"
       sodipodi:rx="3.0304577"
       sodipodi:ry="3.2829957"
       d="m 22.728433,66.20076 c 0,1.813148 -1.356782,3.282996 -3.030458,3.282996 -1.673675,0 -3.030458,-1.469848 -3.030458,-3.282996 0,-1.813149 1.356783,-3.282996 3.030458,-3.282996 1.673351,0 3.029999,1.469298 3.030458,3.282095"
       sodipodi:start="0"
       sodipodi:end="6.2829109"
       sodipodi:open="true"
       transform="translate(75.508903,287.3884)" />
    <path
       sodipodi:type="arc"
       style="fill:#000000;fill-opacity:1;stroke:#000000;stroke-width:0;stroke-linecap:butt;stroke-miterlimit:4;stroke-opacity:0.67372885;stroke-dasharray:none;stroke-dashoffset:0"
       id="path3886-4-3"
       sodipodi:cx="19.697975"
       sodipodi:cy="66.20076"
       sodipodi:rx="3.0304577"
       sodipodi:ry="3.2829957"
       d="m 22.728433,66.20076 c 0,1.813148 -1.356782,3.282996 -3.030458,3.282996 -1.673675,0 -3.030458,-1.469848 -3.030458,-3.282996 0,-1.813149 1.356783,-3.282996 3.030458,-3.282996 1.673351,0 3.029999,1.469298 3.030458,3.282095"
       sodipodi:start="0"
       sodipodi:end="6.2829109"
       sodipodi:open="true"
       transform="translate(204.80843,221.22341)" />
    <path
       sodipodi:type="arc"
       style="fill:#000000;fill-opacity:1;stroke:#000000;stroke-width:0;stroke-linecap:butt;stroke-miterlimit:4;stroke-opacity:0.67372885;stroke-dasharray:none;stroke-dashoffset:0"
       id="path3886-4-1"
       sodipodi:cx="19.697975"
       sodipodi:cy="66.20076"
       sodipodi:rx="3.0304577"
       sodipodi:ry="3.2829957"
       d="m 22.728433,66.20076 c 0,1.813148 -1.356782,3.282996 -3.030458,3.282996 -1.673675,0 -3.030458,-1.469848 -3.030458,-3.282996 0,-1.813149 1.356783,-3.282996 3.030458,-3.282996 1.673351,0 3.029999,1.469298 3.030458,3.282095"
       sodipodi:start="0"
       sodipodi:end="6.2829109"
       sodipodi:open="true"
       transform="translate(250.77037,196.47467)" />
    <path
       sodipodi:type="arc"
       style="fill:#000000;fill-opacity:1;stroke:#000000;stroke-width:0;stroke-linecap:butt;stroke-miterlimit:4;stroke-opacity:0.67372885;stroke-dasharray:none;stroke-dashoffset:0"
       id="path3886-4-5"
       sodipodi:cx="19.697975"
       sodipodi:cy="66.20076"
       sodipodi:rx="3.0304577"
       sodipodi:ry="3.2829957"
       d="m 22.728433,66.20076 c 0,1.813148 -1.356782,3.282996 -3.030458,3.282996 -1.673675,0 -3.030458,-1.469848 -3.030458,-3.282996 0,-1.813149 1.356783,-3.282996 3.030458,-3.282996 1.673351,0 3.029999,1.469298 3.030458,3.282095"
       sodipodi:start="0"
       sodipodi:end="6.2829109"
       sodipodi:open="true"
       transform="translate(295.46962,171.47339)" />
    <path
       sodipodi:type="arc"
       style="fill:#000000;fill-opacity:1;stroke:#000000;stroke-width:0;stroke-linecap:butt;stroke-miterlimit:4;stroke-opacity:0.67372885;stroke-dasharray:none;stroke-dashoffset:0"
       id="path3886-4-6"
       sodipodi:cx="19.697975"
       sodipodi:cy="66.20076"
       sodipodi:rx="3.0304577"
       sodipodi:ry="3.2829957"
       d="m 22.728433,66.20076 c 0,1.813148 -1.356782,3.282996 -3.030458,3.282996 -1.673675,0 -3.030458,-1.469848 -3.030458,-3.282996 0,-1.813149 1.356783,-3.282996 3.030458,-3.282996 1.673351,0 3.029999,1.469298 3.030458,3.282095"
       sodipodi:start="0"
       sodipodi:end="6.2829109"
       sodipodi:open="true"
       transform="translate(296.01631,151.87571)" />
    <path
       style="fill:none;stroke:#000000;stroke-width:0.69999999;stroke-linecap:butt;stroke-linejoin:miter;stroke-miterlimit:4;stroke-opacity:1;stroke-dasharray:none;stroke-dashoffset:0;marker-end:url(#Arrow1Mend)"
       d="m 120.35715,283.61218 c 3.87432,2.02946 8.55661,1.28186 12.39113,-0.45406 4.17392,-1.77326 5.93069,-2.86451 12.29638,-5.79596"
       id="path4019"
       inkscape:connector-curvature="0"
       sodipodi:nodetypes="ccc" />
    <text
       xml:space="preserve"
       style="font-size:10px;font-style:normal;font-weight:normal;line-height:125%;letter-spacing:0px;word-spacing:0px;fill:#000000;fill-opacity:1;stroke:none;font-family:Sans"
       x="-3.7347281"
       y="327.26248"
       id="text4925"
       sodipodi:linespacing="125%"
       transform="matrix(0.70710678,-0.70710678,0.70710678,0.70710678,0,0)"><tspan
         sodipodi:role="line"
         id="tspan4927"
         x="-3.7347281"
         y="327.26248">...</tspan></text>
    <path
       style="fill:none;stroke:#000000;stroke-width:0.69999999;stroke-linecap:butt;stroke-linejoin:miter;stroke-miterlimit:4;stroke-opacity:1;stroke-dasharray:none;stroke-dashoffset:0;marker-end:url(#Arrow1Mend)"
       d="m 170.98831,255.74352 c 3.87432,2.02946 8.55661,1.28186 12.39113,-0.45406 4.17392,-1.77326 5.93069,-2.86451 12.29638,-5.79596"
       id="path4019-3"
       inkscape:connector-curvature="0"
       sodipodi:nodetypes="ccc" />
    <path
       style="fill:none;stroke:#000000;stroke-width:0.69999999;stroke-linecap:butt;stroke-linejoin:miter;stroke-miterlimit:4;stroke-opacity:1;stroke-dasharray:none;stroke-dashoffset:0;marker-end:url(#Arrow1Mend)"
       d="m 265.93287,204.68764 c 3.87432,2.02946 8.55661,1.28186 12.39113,-0.45406 4.17392,-1.77326 5.93069,-2.86451 12.29638,-5.79596"
       id="path4019-7"
       inkscape:connector-curvature="0"
       sodipodi:nodetypes="ccc" />
    <g
       transform="translate(-99.642856,139.28572)"
       ns0:text="$\\varphi_1$"
       ns0:preamble=""
       id="g2910">
      <defs
         id="defs2912">
        <g
           id="g2914">
          <symbol
             style="overflow:visible"
             overflow="visible"
             id="textext-817961e7-0">
            <path
               style="stroke:none"
               d=""
               id="path2917" />
          </symbol>
          <symbol
             style="overflow:visible"
             overflow="visible"
             id="textext-817961e7-1">
            <path
               style="stroke:none"
               d="M 1.6875,1.6875 C 1.65625,1.828125 1.640625,1.84375 1.640625,1.890625 c 0,0.21875 0.1875,0.28125 0.296875,0.28125 0.046875,0 0.265625,-0.03125 0.359375,-0.265625 C 2.328125,1.828125 2.375,1.5 2.65625,0.09375 c 0.078125,0 0.15625,0.015625 0.328125,0.015625 1.65625,0 3.1875,-1.5625 3.1875,-3.140625 0,-0.78125 -0.390625,-1.375 -1.140625,-1.375 -1.4375,0 -2.046875,1.9375 -2.640625,3.875 C 1.3125,-0.734375 0.75,-1.28125 0.75,-2 c 0,-0.28125 0.234375,-1.375 0.828125,-2.0625 0.09375,-0.09375 0.09375,-0.109375 0.09375,-0.140625 0,-0.03125 -0.03125,-0.09375 -0.125,-0.09375 -0.28125,0 -1.046875,1.453125 -1.046875,2.40625 0,0.9375 0.65625,1.65625 1.71875,1.90625 L 1.6875,1.6875 z m 1.390625,-2.15625 c -0.09375,0 -0.109375,0 -0.1875,-0.015625 -0.125,0 -0.125,0 -0.125,-0.03125 0,-0.015625 0.171875,-0.9375 0.1875,-1.078125 0.3125,-1.28125 1.09375,-2.234375 1.984375,-2.234375 0.6875,0 0.953125,0.53125 0.953125,1.015625 0,1.125 -1.28125,2.34375 -2.8125,2.34375 z m 0,0"
               id="path2920" />
          </symbol>
          <symbol
             style="overflow:visible"
             overflow="visible"
             id="textext-817961e7-2">
            <path
               style="stroke:none"
               d=""
               id="path2923" />
          </symbol>
          <symbol
             style="overflow:visible"
             overflow="visible"
             id="textext-817961e7-3">
            <path
               style="stroke:none"
               d="m 2.328125,-4.4375 c 0,-0.1875 0,-0.1875 -0.203125,-0.1875 -0.453125,0.4375 -1.078125,0.4375 -1.359375,0.4375 l 0,0.25 c 0.15625,0 0.625,0 1,-0.1875 l 0,3.546875 c 0,0.234375 0,0.328125 -0.6875,0.328125 l -0.265625,0 0,0.25 c 0.125,0 0.984375,-0.03125 1.234375,-0.03125 0.21875,0 1.09375,0.03125 1.25,0.03125 l 0,-0.25 -0.265625,0 c -0.703125,0 -0.703125,-0.09375 -0.703125,-0.328125 l 0,-3.859375 z m 0,0"
               id="path2926" />
          </symbol>
        </g>
      </defs>
      <g
         id="textext-817961e7-4">
        <g
           style="fill:#000000;fill-opacity:1"
           id="g2929">
          <use
             height="234.23215"
             width="226.66365"
             xlink:href="#textext-817961e7-1"
             x="223.43201"
             y="134.765"
             id="use2931" />
        </g>
        <g
           style="fill:#000000;fill-opacity:1"
           id="g2933">
          <use
             height="234.23215"
             width="226.66365"
             xlink:href="#textext-817961e7-3"
             x="229.94901"
             y="136.259"
             id="use2935" />
        </g>
      </g>
    </g>
    <g
       id="g3092"
       ns0:preamble=""
       ns0:text="$\\varphi_2$"
       transform="translate(-48.571429,108.57143)">
      <defs
         id="defs3094">
        <g
           id="g3096">
          <symbol
             id="textext-760a13ed-0"
             overflow="visible"
             style="overflow:visible">
            <path
               id="path3099"
               d=""
               style="stroke:none" />
          </symbol>
          <symbol
             id="textext-760a13ed-1"
             overflow="visible"
             style="overflow:visible">
            <path
               id="path3102"
               d="M 1.6875,1.6875 C 1.65625,1.828125 1.640625,1.84375 1.640625,1.890625 c 0,0.21875 0.1875,0.28125 0.296875,0.28125 0.046875,0 0.265625,-0.03125 0.359375,-0.265625 C 2.328125,1.828125 2.375,1.5 2.65625,0.09375 c 0.078125,0 0.15625,0.015625 0.328125,0.015625 1.65625,0 3.1875,-1.5625 3.1875,-3.140625 0,-0.78125 -0.390625,-1.375 -1.140625,-1.375 -1.4375,0 -2.046875,1.9375 -2.640625,3.875 C 1.3125,-0.734375 0.75,-1.28125 0.75,-2 c 0,-0.28125 0.234375,-1.375 0.828125,-2.0625 0.09375,-0.09375 0.09375,-0.109375 0.09375,-0.140625 0,-0.03125 -0.03125,-0.09375 -0.125,-0.09375 -0.28125,0 -1.046875,1.453125 -1.046875,2.40625 0,0.9375 0.65625,1.65625 1.71875,1.90625 L 1.6875,1.6875 z m 1.390625,-2.15625 c -0.09375,0 -0.109375,0 -0.1875,-0.015625 -0.125,0 -0.125,0 -0.125,-0.03125 0,-0.015625 0.171875,-0.9375 0.1875,-1.078125 0.3125,-1.28125 1.09375,-2.234375 1.984375,-2.234375 0.6875,0 0.953125,0.53125 0.953125,1.015625 0,1.125 -1.28125,2.34375 -2.8125,2.34375 z m 0,0"
               style="stroke:none" />
          </symbol>
          <symbol
             id="textext-760a13ed-2"
             overflow="visible"
             style="overflow:visible">
            <path
               id="path3105"
               d=""
               style="stroke:none" />
          </symbol>
          <symbol
             id="textext-760a13ed-3"
             overflow="visible"
             style="overflow:visible">
            <path
               id="path3108"
               d="m 3.515625,-1.265625 -0.234375,0 c -0.015625,0.15625 -0.09375,0.5625 -0.1875,0.625 -0.046875,0.046875 -0.578125,0.046875 -0.6875,0.046875 l -1.28125,0 c 0.734375,-0.640625 0.984375,-0.84375 1.390625,-1.171875 0.515625,-0.40625 1,-0.84375 1,-1.5 0,-0.84375 -0.734375,-1.359375 -1.625,-1.359375 -0.859375,0 -1.453125,0.609375 -1.453125,1.25 0,0.34375 0.296875,0.390625 0.375,0.390625 0.15625,0 0.359375,-0.125 0.359375,-0.375 0,-0.125 -0.046875,-0.375 -0.40625,-0.375 C 0.984375,-4.21875 1.453125,-4.375 1.78125,-4.375 c 0.703125,0 1.0625,0.546875 1.0625,1.109375 0,0.609375 -0.4375,1.078125 -0.65625,1.328125 L 0.515625,-0.265625 C 0.4375,-0.203125 0.4375,-0.1875 0.4375,0 l 2.875,0 0.203125,-1.265625 z m 0,0"
               style="stroke:none" />
          </symbol>
        </g>
      </defs>
      <g
         id="textext-760a13ed-4">
        <g
           id="g3111"
           style="fill:#000000;fill-opacity:1">
          <use
             id="use3113"
             y="134.765"
             x="223.43201"
             xlink:href="#textext-760a13ed-1"
             width="226.66365"
             height="234.23215" />
        </g>
        <g
           id="g3115"
           style="fill:#000000;fill-opacity:1">
          <use
             id="use3117"
             y="136.259"
             x="229.94901"
             xlink:href="#textext-760a13ed-3"
             width="226.66365"
             height="234.23215" />
        </g>
      </g>
    </g>
    <g
       transform="translate(45,55.357143)"
       ns0:text="$\\varphi_N$"
       ns0:preamble=""
       id="g3267">
      <defs
         id="defs3269">
        <g
           id="g3271">
          <symbol
             style="overflow:visible"
             overflow="visible"
             id="textext-ee67ae17-0">
            <path
               style="stroke:none"
               d=""
               id="path3274" />
          </symbol>
          <symbol
             style="overflow:visible"
             overflow="visible"
             id="textext-ee67ae17-1">
            <path
               style="stroke:none"
               d="M 1.6875,1.6875 C 1.65625,1.828125 1.640625,1.84375 1.640625,1.890625 c 0,0.21875 0.1875,0.28125 0.296875,0.28125 0.046875,0 0.265625,-0.03125 0.359375,-0.265625 C 2.328125,1.828125 2.375,1.5 2.65625,0.09375 c 0.078125,0 0.15625,0.015625 0.328125,0.015625 1.65625,0 3.1875,-1.5625 3.1875,-3.140625 0,-0.78125 -0.390625,-1.375 -1.140625,-1.375 -1.4375,0 -2.046875,1.9375 -2.640625,3.875 C 1.3125,-0.734375 0.75,-1.28125 0.75,-2 c 0,-0.28125 0.234375,-1.375 0.828125,-2.0625 0.09375,-0.09375 0.09375,-0.109375 0.09375,-0.140625 0,-0.03125 -0.03125,-0.09375 -0.125,-0.09375 -0.28125,0 -1.046875,1.453125 -1.046875,2.40625 0,0.9375 0.65625,1.65625 1.71875,1.90625 L 1.6875,1.6875 z m 1.390625,-2.15625 c -0.09375,0 -0.109375,0 -0.1875,-0.015625 -0.125,0 -0.125,0 -0.125,-0.03125 0,-0.015625 0.171875,-0.9375 0.1875,-1.078125 0.3125,-1.28125 1.09375,-2.234375 1.984375,-2.234375 0.6875,0 0.953125,0.53125 0.953125,1.015625 0,1.125 -1.28125,2.34375 -2.8125,2.34375 z m 0,0"
               id="path3277" />
          </symbol>
          <symbol
             style="overflow:visible"
             overflow="visible"
             id="textext-ee67ae17-2">
            <path
               style="stroke:none"
               d=""
               id="path3280" />
          </symbol>
          <symbol
             style="overflow:visible"
             overflow="visible"
             id="textext-ee67ae17-3">
            <path
               style="stroke:none"
               d="M 5.8125,-4 C 5.875,-4.265625 6,-4.5 6.546875,-4.515625 c 0.03125,0 0.140625,0 0.140625,-0.140625 0,-0.046875 -0.03125,-0.109375 -0.109375,-0.109375 -0.21875,0 -0.484375,0.03125 -0.71875,0.03125 -0.171875,0 -0.5625,-0.03125 -0.734375,-0.03125 -0.03125,0 -0.140625,0 -0.140625,0.15625 0,0.09375 0.09375,0.09375 0.15625,0.09375 0.328125,0.015625 0.4375,0.125 0.4375,0.296875 0,0.046875 0,0.09375 -0.03125,0.15625 l -0.75,3.046875 -1.765625,-3.625 c -0.0625,-0.125 -0.078125,-0.125 -0.25,-0.125 l -0.953125,0 c -0.125,0 -0.21875,0 -0.21875,0.15625 0,0.09375 0.078125,0.09375 0.234375,0.09375 0.140625,0 0.296875,0.015625 0.4375,0.046875 L 1.359375,-0.75 c -0.0625,0.265625 -0.1875,0.484375 -0.734375,0.5 -0.046875,0 -0.140625,0 -0.140625,0.140625 C 0.484375,-0.03125 0.53125,0 0.578125,0 0.8125,0 1.078125,-0.03125 1.3125,-0.03125 1.484375,-0.03125 1.875,0 2.046875,0 2.125,0 2.1875,-0.03125 2.1875,-0.140625 2.1875,-0.25 2.109375,-0.25 2.03125,-0.25 c -0.4375,-0.015625 -0.4375,-0.203125 -0.4375,-0.296875 0,-0.03125 0,-0.0625 0.015625,-0.171875 l 0.90625,-3.5625 2.03125,4.15625 C 4.59375,0 4.625,0 4.703125,0 4.8125,0 4.8125,-0.015625 4.84375,-0.140625 L 5.8125,-4 z m 0,0"
               id="path3283" />
          </symbol>
        </g>
      </defs>
      <g
         id="textext-ee67ae17-4">
        <g
           style="fill:#000000;fill-opacity:1"
           id="g3286">
          <use
             height="234.23215"
             width="226.66365"
             xlink:href="#textext-ee67ae17-1"
             x="223.43201"
             y="134.765"
             id="use3288" />
        </g>
        <g
           style="fill:#000000;fill-opacity:1"
           id="g3290">
          <use
             height="234.23215"
             width="226.66365"
             xlink:href="#textext-ee67ae17-3"
             x="229.94901"
             y="136.259"
             id="use3292" />
        </g>
      </g>
    </g>
    <g
       id="g3472"
       ns0:preamble=""
       ns0:text="$d$"
       transform="translate(-37.142857,57.857143)">
      <defs
         id="defs3474">
        <g
           id="g3476">
          <symbol
             id="textext-2c4fa00a-0"
             overflow="visible"
             style="overflow:visible">
            <path
               id="path3479"
               d=""
               style="stroke:none" />
          </symbol>
          <symbol
             id="textext-2c4fa00a-1"
             overflow="visible"
             style="overflow:visible">
            <path
               id="path3482"
               d="m 5.140625,-6.8125 c 0,0 0,-0.109375 -0.125,-0.109375 -0.15625,0 -1.09375,0.09375 -1.265625,0.109375 -0.078125,0.015625 -0.140625,0.0625 -0.140625,0.1875 0,0.125 0.09375,0.125 0.234375,0.125 0.484375,0 0.5,0.0625 0.5,0.171875 L 4.3125,-6.125 3.71875,-3.765625 C 3.53125,-4.140625 3.25,-4.40625 2.796875,-4.40625 c -1.15625,0 -2.390625,1.46875 -2.390625,2.921875 0,0.9375 0.546875,1.59375 1.3125,1.59375 0.203125,0 0.703125,-0.046875 1.296875,-0.75 0.078125,0.421875 0.4375,0.75 0.90625,0.75 0.359375,0 0.578125,-0.234375 0.75,-0.546875 0.15625,-0.359375 0.296875,-0.96875 0.296875,-0.984375 0,-0.109375 -0.09375,-0.109375 -0.125,-0.109375 -0.09375,0 -0.109375,0.046875 -0.140625,0.1875 -0.171875,0.640625 -0.34375,1.234375 -0.75,1.234375 -0.28125,0 -0.296875,-0.265625 -0.296875,-0.453125 0,-0.25 0.015625,-0.3125 0.046875,-0.484375 l 1.4375,-5.765625 z m -2.0625,5.625 C 3.015625,-1 3.015625,-0.984375 2.875,-0.8125 2.4375,-0.265625 2.03125,-0.109375 1.75,-0.109375 c -0.5,0 -0.640625,-0.546875 -0.640625,-0.9375 0,-0.5 0.3125,-1.71875 0.546875,-2.1875 0.3125,-0.578125 0.75,-0.953125 1.15625,-0.953125 0.640625,0 0.78125,0.8125 0.78125,0.875 0,0.0625 -0.015625,0.125 -0.03125,0.171875 L 3.078125,-1.1875 z m 0,0"
               style="stroke:none" />
          </symbol>
        </g>
      </defs>
      <g
         id="textext-2c4fa00a-2">
        <g
           id="g3485"
           style="fill:#000000;fill-opacity:1">
          <use
             id="use3487"
             y="134.765"
             x="223.43201"
             xlink:href="#textext-2c4fa00a-1"
             width="226.66365"
             height="234.23215" />
        </g>
      </g>
    </g>
    <path
       style="fill:none;stroke:#000000;stroke-width:1.00010002;stroke-linecap:butt;stroke-linejoin:miter;stroke-miterlimit:4;stroke-opacity:1;stroke-dasharray:none;marker-end:url(#Arrow1Mend-9)"
       d="m 156.06248,215.49108 7.14285,-5.35715"
       id="path3589" />
    <path
       style="fill:none;stroke:#000000;stroke-width:1.00010002;stroke-linecap:butt;stroke-linejoin:miter;stroke-miterlimit:4;stroke-opacity:1;stroke-dasharray:none;marker-end:url(#Arrow1Mend-9)"
       d="m 225.78745,171.20181 -6.78572,4.64285"
       id="path3589-2"
       sodipodi:nodetypes="cc" />
    <path
       style="fill:none;stroke:#000000;stroke-width:1px;stroke-linecap:butt;stroke-linejoin:miter;stroke-opacity:1"
       d="M 77.053572,88.071433 71.964286,80.482147"
       id="path4615"
       transform="translate(92.133903,122.6875)" />
    <path
       style="fill:none;stroke:#000000;stroke-width:1px;stroke-linecap:butt;stroke-linejoin:miter;stroke-opacity:1"
       d="m 126.60714,57.267861 -5,-7.142857"
       id="path4617"
       transform="translate(92.133903,122.6875)" />
    <g
       transform="translate(3.5355339,164.14979)"
       ns0:text="$m$"
       ns0:preamble=""
       id="g4726">
      <defs
         id="defs4728">
        <g
           id="g4730">
          <symbol
             style="overflow:visible"
             overflow="visible"
             id="textext-08e211e0-0">
            <path
               style="stroke:none"
               d=""
               id="path4733" />
          </symbol>
          <symbol
             style="overflow:visible"
             overflow="visible"
             id="textext-08e211e0-1">
            <path
               style="stroke:none"
               d="m 0.875,-0.59375 c -0.03125,0.15625 -0.09375,0.390625 -0.09375,0.4375 0,0.171875 0.140625,0.265625 0.296875,0.265625 0.125,0 0.296875,-0.078125 0.375,-0.28125 0,-0.015625 0.125,-0.484375 0.1875,-0.734375 l 0.21875,-0.890625 C 1.90625,-2.03125 1.96875,-2.25 2.03125,-2.46875 c 0.03125,-0.171875 0.109375,-0.46875 0.125,-0.5 0.140625,-0.3125 0.671875,-1.21875 1.625,-1.21875 0.453125,0 0.53125,0.375 0.53125,0.703125 0,0.25 -0.0625,0.53125 -0.140625,0.828125 L 3.890625,-1.5 3.6875,-0.75 c -0.03125,0.203125 -0.125,0.546875 -0.125,0.59375 0,0.171875 0.140625,0.265625 0.28125,0.265625 0.3125,0 0.375,-0.25 0.453125,-0.5625 0.140625,-0.5625 0.515625,-2.015625 0.59375,-2.40625 0.03125,-0.125 0.5625,-1.328125 1.65625,-1.328125 0.421875,0 0.53125,0.34375 0.53125,0.703125 0,0.5625 -0.421875,1.703125 -0.625,2.234375 -0.078125,0.234375 -0.125,0.34375 -0.125,0.546875 0,0.46875 0.34375,0.8125 0.8125,0.8125 0.9375,0 1.3125,-1.453125 1.3125,-1.53125 0,-0.109375 -0.09375,-0.109375 -0.125,-0.109375 -0.09375,0 -0.09375,0.03125 -0.140625,0.1875 -0.15625,0.53125 -0.46875,1.234375 -1.015625,1.234375 -0.171875,0 -0.25,-0.09375 -0.25,-0.328125 0,-0.25 0.09375,-0.484375 0.1875,-0.703125 0.1875,-0.53125 0.609375,-1.625 0.609375,-2.203125 0,-0.640625 -0.40625,-1.0625 -1.15625,-1.0625 -0.734375,0 -1.25,0.4375 -1.625,0.96875 0,-0.125 -0.03125,-0.46875 -0.3125,-0.703125 -0.25,-0.21875 -0.5625,-0.265625 -0.8125,-0.265625 -0.90625,0 -1.390625,0.640625 -1.5625,0.875 -0.046875,-0.578125 -0.46875,-0.875 -0.921875,-0.875 -0.453125,0 -0.640625,0.390625 -0.734375,0.5625 -0.171875,0.359375 -0.296875,0.9375 -0.296875,0.96875 0,0.109375 0.09375,0.109375 0.109375,0.109375 0.109375,0 0.109375,-0.015625 0.171875,-0.234375 0.171875,-0.703125 0.375,-1.1875 0.734375,-1.1875 0.15625,0 0.296875,0.078125 0.296875,0.453125 0,0.21875 -0.03125,0.328125 -0.15625,0.84375 L 0.875,-0.59375 z m 0,0"
               id="path4736" />
          </symbol>
        </g>
      </defs>
      <g
         id="textext-08e211e0-2">
        <g
           style="fill:#000000;fill-opacity:1"
           id="g4739">
          <use
             height="234.23215"
             width="226.66365"
             xlink:href="#textext-08e211e0-1"
             x="223.43201"
             y="134.765"
             id="use4741" />
        </g>
      </g>
    </g>
    <path
       sodipodi:nodetypes="cc"
       transform="translate(92.133903,122.6875)"
       id="path4879"
       d="m 22.223356,108.21561 6.060915,8.08123"
       style="fill:none;stroke:#000000;stroke-width:1px;stroke-linecap:butt;stroke-linejoin:miter;stroke-opacity:1;marker-end:url(#Arrow1Mend-9-0)" />
    <path
       sodipodi:nodetypes="cc"
       id="path4879-8"
       d="m 188.17593,330.63321 -6.06091,-8.33375"
       style="fill:none;stroke:#000000;stroke-width:1px;stroke-linecap:butt;stroke-linejoin:miter;stroke-opacity:1;marker-end:url(#Arrow1Mend-9-0)" />
    <path
       id="path5103"
       d="m 177.02884,322.40607 6.40779,-5.26502"
       style="fill:none;stroke:#000000;stroke-width:1.08423007px;stroke-linecap:butt;stroke-linejoin:miter;stroke-opacity:1" />
    <g
       id="g5228"
       ns0:preamble=""
       ns0:text="$l$"
       transform="translate(-67.680221,153.54318)">
      <defs
         id="defs5230">
        <g
           id="g5232">
          <symbol
             id="textext-eb1b1f81-0"
             overflow="visible"
             style="overflow:visible">
            <path
               id="path5235"
               d=""
               style="stroke:none" />
          </symbol>
          <symbol
             id="textext-eb1b1f81-1"
             overflow="visible"
             style="overflow:visible">
            <path
               id="path5238"
               d="m 2.578125,-6.8125 c 0,0 0,-0.109375 -0.140625,-0.109375 -0.21875,0 -0.953125,0.078125 -1.21875,0.109375 -0.078125,0 -0.1875,0.015625 -0.1875,0.203125 0,0.109375 0.109375,0.109375 0.25,0.109375 0.484375,0 0.5,0.09375 0.5,0.171875 L 1.75,-6.125 0.484375,-1.140625 C 0.453125,-1.03125 0.4375,-0.96875 0.4375,-0.8125 c 0,0.578125 0.4375,0.921875 0.90625,0.921875 0.328125,0 0.578125,-0.203125 0.75,-0.5625 0.171875,-0.375 0.296875,-0.953125 0.296875,-0.96875 0,-0.109375 -0.09375,-0.109375 -0.125,-0.109375 -0.09375,0 -0.109375,0.046875 -0.125,0.1875 C 1.96875,-0.703125 1.78125,-0.109375 1.375,-0.109375 c -0.296875,0 -0.296875,-0.3125 -0.296875,-0.453125 0,-0.25 0.015625,-0.296875 0.0625,-0.484375 l 1.4375,-5.765625 z m 0,0"
               style="stroke:none" />
          </symbol>
        </g>
      </defs>
      <g
         id="textext-eb1b1f81-2">
        <g
           id="g5241"
           style="fill:#000000;fill-opacity:1">
          <use
             id="use5243"
             y="134.765"
             x="223.43201"
             xlink:href="#textext-eb1b1f81-1"
             width="226.66365"
             height="234.23215" />
        </g>
      </g>
    </g>
  </g>
</svg>
